<svg aria-hidden="true" style="position: absolute; width: 0; height: 0; overflow: hidden;" version="1.1" xmlns="http://www.w3.org/2000/svg" xmlns:xlink="http://www.w3.org/1999/xlink">
<defs>
<symbol id="icon-reshot-icon-phone-YUPNL5R2TW" viewBox="0 0 32 32">
<path d="M31.328 23.030l-4.793-4.793c-0.426-0.427-0.993-0.662-1.596-0.662 0 0-0.001 0-0.002 0-0.603 0-1.171 0.236-1.596 0.662l-3.195 3.195-9.587-9.587 3.195-3.195c0.881-0.881 0.881-2.316-0.001-3.197l-4.794-4.793c-0.426-0.426-0.993-0.661-1.596-0.661h-0.001c-0.604 0-1.172 0.236-1.598 0.663l-4.794 4.794c-0.146 0.145-1.409 1.512-0.809 4.516 0.707 3.535 3.667 7.93 8.798 13.061 7.343 7.343 11.974 8.967 14.635 8.967 1.842 0 2.741-0.778 2.942-0.98l4.793-4.793c0.427-0.427 0.663-0.995 0.662-1.6 0-0.603-0.235-1.172-0.662-1.599zM24.937 29.423c-0.032 0.032-3.852 2.541-14.382-7.988-10.757-10.756-7.984-14.382-7.989-14.38l4.794-4.795 4.794 4.795-3.994 3.994c-0.442 0.442-0.442 1.156 0 1.598l11.184 11.184c0.442 0.442 1.156 0.442 1.598 0l3.994-3.995 4.794 4.795-4.793 4.793z"></path>
</symbol>
<symbol id="icon-reshot-icon-email-P9WA8LS724" viewBox="0 0 32 32">
<path d="M29 4h-26c-1.657 0-3 1.343-3 3v0 18c0 1.657 1.343 3 3 3v0h26c1.657 0 3-1.343 3-3v0-18c0-1.657-1.343-3-3-3v0zM28.28 6l-12.28 8.77-12.28-8.77zM30 25c0 0.552-0.448 1-1 1v0h-26c-0.552 0-1-0.448-1-1v0-17.77l13.42 9.58c0.161 0.116 0.362 0.185 0.58 0.185s0.419-0.069 0.583-0.187l-0.003 0.002 13.42-9.58z"></path>
</symbol>
</defs>
</svg>
